<svg xmlns="http://www.w3.org/2000/svg" viewBox="0 0 32 32">
  <rect width="32" height="32" rx="6" fill="#D22630"/>
  <path d="M10 6h7.5c1.8 0 3.2.5 4.2 1.4 1 1 1.5 2.2 1.5 3.6 0 1.1-.3 2-.9 2.8-.6.7-1.3 1.2-2.2 1.5v.1c1.2.2 2.1.8 2.8 1.6.7.9 1 1.9 1 3.1 0 1.7-.6 3-1.7 4C21.1 25 19.5 25.5 17.5 25.5H10V6zm4.2 8.2h2.6c.9 0 1.6-.2 2.1-.7.5-.4.7-1 .7-1.8 0-.7-.2-1.3-.7-1.7-.5-.4-1.2-.6-2.1-.6h-2.6v4.8zm0 3.4v5.3h3c.9 0 1.7-.3 2.2-.8.5-.5.8-1.2.8-2s-.3-1.4-.8-1.9c-.5-.4-1.3-.6-2.2-.6h-3z" fill="white"/>
</svg>
